<?xml version="1.0" encoding="UTF-8"?>
<svg version="1.1" xmlns="http://www.w3.org/2000/svg" width="2400" height="1697">
<path d="M0 0 C9.50200077 9.72978845 17.52632187 24.31732981 17.53521729 38.09994507 C17.53833727 38.75531805 17.54145725 39.41069103 17.54467177 40.08592379 C17.55261023 42.26880146 17.54634423 44.4513979 17.54003906 46.63427734 C17.54275104 48.20524253 17.54631313 49.77620645 17.55065918 51.34716797 C17.55976838 55.60811343 17.55624298 59.8689619 17.54990101 64.12990904 C17.5448245 68.60407484 17.54953787 73.07823254 17.55267334 77.55239868 C17.55631194 85.07612591 17.5515206 92.59981389 17.54199219 100.12353516 C17.5311474 108.78594204 17.5346046 117.44825448 17.545645 126.110659 C17.55476834 133.57084909 17.55597746 141.03101098 17.55076766 148.49120486 C17.54767044 152.93612181 17.54717524 157.38099465 17.55384064 161.82590866 C17.5596858 166.0169635 17.55548841 170.20789889 17.54405212 174.39894104 C17.54144167 175.92415292 17.54210739 177.44937511 17.54657745 178.97458267 C17.60887569 202.42256768 14.45909723 225.2869096 -2.3828125 242.99609375 C-3.15367187 243.76824219 -3.92453125 244.54039062 -4.71875 245.3359375 C-5.40710937 246.03589844 -6.09546875 246.73585938 -6.8046875 247.45703125 C-15.38331868 255.63702716 -25.54973256 260.88159876 -36.65625 264.7109375 C-37.67319946 265.06889404 -37.67319946 265.06889404 -38.71069336 265.43408203 C-53.36602086 270.15148409 -68.94035229 269.65646528 -84.14453125 269.71484375 C-86.43385937 269.73067683 -88.72318144 269.74740614 -91.01249695 269.76496887 C-95.85181993 269.80056129 -100.69113212 269.83067515 -105.53051758 269.85638428 C-113.06796839 269.89697022 -120.60525387 269.95293301 -128.14257812 270.01220703 C-130.65982034 270.0318271 -133.17706277 270.05141944 -135.69430542 270.07098389 C-136.93529873 270.0806292 -138.17629204 270.09027451 -139.4548912 270.1002121 C-145.63869505 270.14750218 -151.82252171 270.19155164 -158.00634766 270.23583984 C-181.26241261 270.3992825 -181.26241261 270.3992825 -204.51777744 270.63922215 C-207.91728972 270.68045072 -211.31651958 270.71525002 -214.71621704 270.73977661 C-241.31991076 270.93369923 -264.61731838 273.92055552 -284.90625 292.9609375 C-305.97994551 315.08324386 -309.2718949 342.18442925 -309.67443848 371.3394165 C-309.75568511 376.83363609 -309.85742028 382.3275147 -309.95516777 387.82146072 C-310.23587408 403.65923214 -310.48397702 419.49742037 -310.71875 435.3359375 C-318.95184947 435.42930658 -327.18472157 435.50003694 -335.41822243 435.54318619 C-339.24287465 435.56391319 -343.06716025 435.59195161 -346.89160156 435.63769531 C-350.59398284 435.68169346 -354.29601528 435.70518596 -357.99863815 435.71544647 C-359.39941258 435.72274252 -360.80017157 435.7369845 -362.20079422 435.75885773 C-383.04377759 436.07091388 -401.25425452 428.29505089 -416.203125 413.87939453 C-449.95856275 379.50409211 -455.96594597 326.19188189 -455.90625 280.3984375 C-455.90564575 279.53943848 -455.9050415 278.68043945 -455.90441895 277.79541016 C-455.81903231 232.96950715 -449.39003893 183.92313949 -416.71875 150.3359375 C-400.87581071 134.80583481 -380.44652371 126.20244486 -358.26553345 126.17771912 C-357.32118986 126.17278114 -356.37684626 126.16784316 -355.4038862 126.16275555 C-352.24403134 126.14741471 -349.08419674 126.13902916 -345.92431641 126.13061523 C-343.65744855 126.12103403 -341.39058247 126.11102381 -339.12371826 126.10061646 C-332.97138859 126.07358761 -326.81905126 126.05256707 -320.66669512 126.03261447 C-314.23647194 126.01074248 -307.8062723 125.98335972 -301.37606812 125.95655823 C-290.58389265 125.91231944 -279.79170997 125.87148143 -268.99951172 125.83325195 C-257.88491879 125.79387112 -246.77033662 125.75243872 -235.65576172 125.70825195 C-234.97032908 125.70552768 -234.28489643 125.70280341 -233.57869311 125.69999658 C-230.13998039 125.68631668 -226.70126784 125.67259649 -223.26255536 125.65885627 C-194.74797591 125.54497139 -166.23337254 125.438413 -137.71875 125.3359375 C-137.38875 118.7359375 -137.05875 112.1359375 -136.71875 105.3359375 C-139.66603027 105.34379272 -139.66603027 105.34379272 -142.67285156 105.35180664 C-152.10480996 105.37459959 -161.53676887 105.38913199 -170.96875 105.3984375 C-171.83011818 105.39929352 -172.69148636 105.40014954 -173.5789566 105.40103149 C-201.58741289 105.42554677 -229.58814684 105.23386658 -257.59375 104.8359375 C-258.85678703 104.81800077 -258.85678703 104.81800077 -260.14533997 104.79970169 C-270.336621 104.65416054 -280.52774714 104.49984735 -290.71875 104.3359375 C-290.81175382 93.70413499 -290.88266851 83.07243052 -290.92599869 72.44030285 C-290.94680334 67.50245398 -290.97498972 62.56488506 -291.02050781 57.62719727 C-291.06422105 52.85500174 -291.08794057 48.08307415 -291.09825897 43.31069374 C-291.10560487 41.49716288 -291.11994885 39.68364537 -291.14167023 37.87022972 C-291.30632097 23.54429745 -289.57153246 13.06587426 -280.71875 1.3359375 C-280.11933594 0.53285156 -279.51992187 -0.27023437 -278.90234375 -1.09765625 C-255.39303337 -28.72845575 -210.64785266 -34.88977129 -176.86108398 -37.71655273 C-118.46223775 -41.8853825 -45.65222725 -42.32943855 0 0 Z M-246.71875 22.3359375 C-250.78825722 28.66366839 -252.70757866 36.31074269 -251.2421875 43.7578125 C-248.38715691 53.10725333 -242.85835821 59.25217258 -234.59375 64.2109375 C-227.49442735 66.85922415 -219.18455834 66.42735623 -212.34375 63.3359375 C-205.73064488 59.54012269 -200.27150265 53.56873667 -197.71875 46.3359375 C-195.92981886 38.21392895 -196.83836314 31.6952919 -200.71875 24.3359375 C-205.35992605 17.35073315 -210.89741614 13.94304879 -218.71875 11.3359375 C-230.16733019 10.19107948 -239.09725456 13.61087711 -246.71875 22.3359375 Z " fill="#3671A2" transform="translate(1346.71875,632.6640625)"/>
<path d="M0 0 C8.47656634 -0.11675857 16.9527869 -0.20514671 25.42996311 -0.25906086 C29.36790794 -0.28496015 33.30529562 -0.31998833 37.24291992 -0.37719727 C41.0555498 -0.43223235 44.86764992 -0.46156762 48.6806469 -0.47438622 C50.12249003 -0.4835 51.56431 -0.50128966 53.00592232 -0.52865028 C66.32136558 -0.77090692 78.46737382 1.97922794 89.8125 9.25 C90.7411084 9.83068237 90.7411084 9.83068237 91.68847656 10.4230957 C119.59984708 28.34486624 132.2594111 60.23984028 139.1862793 91.29443359 C140.84772238 98.98623389 142.13883098 106.35166144 142.31640625 114.23828125 C142.33727798 115.02726303 142.35814972 115.81624481 142.37965393 116.62913513 C142.44560102 119.19016142 142.50466136 121.75127854 142.5625 124.3125 C142.59376984 125.63211731 142.59376984 125.63211731 142.62567139 126.97839355 C142.93717863 140.19146757 143.21725184 153.40107211 143.04150391 166.61816406 C143.01098678 169.10477129 142.99007905 171.59045597 142.97802734 174.07714844 C142.87269216 192.5786962 142.23145299 210.10292397 137 228 C136.77151367 228.80663086 136.54302734 229.61326172 136.30761719 230.44433594 C130.30956752 251.22117276 120.25555937 269.60398577 105 285 C104.195625 285.81726562 103.39125 286.63453125 102.5625 287.4765625 C93.7307342 295.93065411 83.55588611 301.39586527 72.125 305.4375 C71.45533203 305.68459717 70.78566406 305.93169434 70.09570312 306.1862793 C56.09762496 310.77755727 39.45320001 309.14022965 24.89648438 309.11352539 C22.71681215 309.11324272 20.53713982 309.11340282 18.35746765 309.1139679 C12.4887591 309.11425274 6.62007133 309.10840684 0.75136757 309.10139394 C-5.39984403 309.09510807 -11.55105619 309.09455248 -17.70227051 309.09336853 C-29.32880428 309.09027057 -40.95532855 309.08207801 -52.58185816 309.07201904 C-65.82744146 309.06081006 -79.07302523 309.05533543 -92.3186121 309.05032361 C-119.54574683 309.039894 -146.77287248 309.02212111 -174 309 C-174 315.93 -174 322.86 -174 330 C-123.18 330 -72.36 330 -20 330 C-19.896875 343.40625 -19.79375 356.8125 -19.6875 370.625 C-19.61921997 376.93359131 -19.61921997 376.93359131 -19.54956055 383.36962891 C-19.52697754 388.57495117 -19.52697754 388.57495117 -19.52278137 391.02523804 C-19.51519086 392.70719044 -19.49779065 394.38911867 -19.47212219 396.07089233 C-19.22869653 412.88616904 -21.85647765 425.42834064 -34 438 C-34.763125 438.79148437 -35.52625 439.58296875 -36.3125 440.3984375 C-72.17598285 474.96422853 -136.65144344 474.79430525 -183 474 C-183.85674316 473.98743164 -184.71348633 473.97486328 -185.59619141 473.96191406 C-209.90170606 473.51104516 -234.53185873 470.39949101 -258 464 C-258.68368652 463.81356934 -259.36737305 463.62713867 -260.07177734 463.43505859 C-275.36260753 459.11298402 -290.77586503 452.2295669 -303 442 C-303.87011719 441.29101562 -304.74023438 440.58203125 -305.63671875 439.8515625 C-316.63734964 430.47882766 -324.48409275 418.07321915 -328 404 C-328.25168228 400.6193161 -328.25168228 400.6193161 -328.25396729 397.03308105 C-328.25864726 396.03543094 -328.25864726 396.03543094 -328.26342177 395.01762629 C-328.27134449 392.80788235 -328.26510053 390.59841744 -328.25878906 388.38867188 C-328.26150168 386.79623251 -328.26506414 385.20379439 -328.26940918 383.61135864 C-328.27850912 379.29682259 -328.27499723 374.98238245 -328.26865101 370.66784477 C-328.26357157 366.13716253 -328.26828851 361.60648825 -328.27142334 357.07580566 C-328.2750603 349.4597019 -328.27027408 341.84363693 -328.26074219 334.22753906 C-328.24988943 325.45546065 -328.25336111 316.68347546 -328.264395 307.91139936 C-328.27351305 300.35693811 -328.27473025 292.80250471 -328.26951766 285.24803972 C-328.26641864 280.74671945 -328.2659305 276.24544274 -328.27259064 271.74412537 C-328.27842835 267.50217275 -328.27425152 263.26033832 -328.26280212 259.01839828 C-328.26018815 257.47341481 -328.26086369 255.92842116 -328.26532745 254.38344193 C-328.32908453 230.04483453 -324.20561836 207.88352744 -306.79296875 189.6015625 C-286.57355175 170.76781184 -260.52473963 165.06227838 -233.7421875 165.23046875 C-231.53144711 165.22220668 -229.32071544 165.21123429 -227.11000061 165.19776917 C-222.44191554 165.17456691 -217.77430301 165.16908053 -213.10617065 165.17834473 C-205.80044635 165.1921809 -198.49531361 165.1616623 -191.18969727 165.12402344 C-181.40104189 165.07697785 -171.61248359 165.0442318 -161.82373047 165.02685547 C-145.23991507 164.99673087 -128.65634799 164.95896886 -112.07313156 164.80676174 C-108.16197997 164.77165286 -104.25134913 164.74598694 -100.34002686 164.74594116 C-71.73391424 164.74231562 -46.34555766 161.51851709 -24.8984375 140.98828125 C-9.75592239 125.17341508 -2.10166906 102.49571277 -1.70288086 80.94360352 C-1.68322769 80.06475998 -1.66357452 79.18591644 -1.64332581 78.28044128 C-1.57982679 75.39666692 -1.52229534 72.51280689 -1.46484375 69.62890625 C-1.42180156 67.62108072 -1.37838487 65.61326318 -1.33460999 63.60545349 C-1.22073979 58.33663186 -1.11194071 53.06771738 -1.00421143 47.79876709 C-0.89325083 42.41590937 -0.77747512 37.03315542 -0.66210938 31.65039062 C-0.43670403 21.10035622 -0.216658 10.55021741 0 0 Z M-106 377 C-111.61175406 383.89481099 -114.90601128 390.93988723 -114 400 C-111.87723864 408.15333342 -108.9123149 415.05720917 -101.49609375 419.5 C-93.79597292 423.4453312 -87.17065863 425.32012967 -78.625 423.0625 C-71.36391086 420.38206328 -64.95585504 414.60803332 -61.375 407.75 C-58.62573709 400.21254714 -58.71279111 391.9460042 -62 384.625 C-66.12395599 377.46050019 -72.09545881 372.4961709 -80 370 C-89.39223198 367.74867848 -99.05180013 370.13674145 -106 377 Z " fill="#FED142" transform="translate(1384,755)"/>
<path d="M0 0 C0.66 0.33 1.32 0.66 2 1 C-2.95 5.95 -7.9 10.9 -13 16 C-13.66 15.67 -14.32 15.34 -15 15 C-10.28109462 9.59947495 -5.69641143 4.38185495 0 0 Z " fill="#65858D" transform="translate(939,775)"/>
<path d="M0 0 C0.66 0.33 1.32 0.66 2 1 C-1.3 4.3 -4.6 7.6 -8 11 C-8.66 10.67 -9.32 10.34 -10 10 C-6.66666667 6.66666667 -3.33333333 3.33333333 0 0 Z " fill="#62878D" transform="translate(1077,623)"/>
</svg>
