<?xml version="1.0" encoding="UTF-8"?>
<svg version="1.1" xmlns="http://www.w3.org/2000/svg" width="277" height="128">
<path d="M0 0 C0.98677734 -0.020625 1.97355469 -0.04125 2.99023438 -0.0625 C13.02410956 -0.11506778 21.93405639 2.25065664 30.875 6.75 C31.88796143 7.25950195 31.88796143 7.25950195 32.92138672 7.77929688 C45.52842284 14.46254494 54.36320891 24.94510033 60.8125 37.5 C61.12356689 38.10303955 61.43463379 38.7060791 61.75512695 39.32739258 C63.38738347 42.64229245 63.9375 44.46339785 63.9375 48.25 C56.3475 48.25 48.7575 48.25 40.9375 48.25 C39.2875 45.28 37.6375 42.31 35.9375 39.25 C29.80564749 30.23256984 19.47717117 25.05296485 9.0625 22.5625 C-5.37352368 21.11889763 -17.79111897 24.24916231 -29.1875 33.375 C-31.68569813 35.54234271 -32.9767895 37.05332262 -34.30859375 40.109375 C-35.9020299 43.75962043 -36.93545436 45.71961906 -40.0625 48.25 C-47.53814503 49.97240005 -55.4426774 49.56528376 -63.0625 49.25 C-58.08836839 31.66181517 -47.8659214 17.22914465 -31.75 8.0625 C-21.1717829 2.55239806 -11.81758396 0.06010214 0 0 Z " fill="#C70301" transform="translate(64.0625,-0.25)"/>
<path d="M0 0 C7.26 0 14.52 0 22 0 C22 20.04803711 16.23765435 36.45283143 2 51 C-7.54353259 59.27965936 -16.45794839 65.54941682 -29.3359375 65.56640625 C-32.72702017 64.84542826 -33.91563915 63.73781036 -36 61 C-36.71484375 58.81640625 -36.71484375 58.81640625 -36.9375 56.5625 C-37.02902344 55.82128906 -37.12054688 55.08007812 -37.21484375 54.31640625 C-36.91106785 51.0411497 -36.0858046 49.57087544 -34 47 C-31.38999067 45.30898184 -28.62043721 44.01569601 -25.8125 42.6875 C-14.04950664 36.75730421 -6.8974467 29.49764538 -2.22265625 16.90625 C-0.67906155 11.40789807 -0.42530125 5.6706833 0 0 Z " fill="#003CB8" transform="translate(109,63)"/>
<path d="M0 0 C6.93 0 13.86 0 21 0 C21.185625 2.35125 21.37125 4.7025 21.5625 7.125 C22.76790087 18.14937186 27.09769183 28.49892097 35.4140625 36.125 C40.70559972 39.96176414 46.5136465 42.97572134 52.31762695 45.96020508 C55.66819834 48.03103421 56.85387042 49.44679515 57.875 53.3125 C58.01814113 57.53516339 57.28634278 59.48883073 55 63 C50.44290437 66.03806376 46.3369609 65.74703992 41 65 C24.18985601 59.25088704 11.82090285 45.448219 4 30 C-0.74383982 19.9821265 -0.32972049 10.88077627 0 0 Z " fill="#003CB8" transform="translate(0,63)"/>
<path d="M0 0 C23.42562938 -0.63612279 23.42562938 -0.63612279 32 3 C32.89380371 3.37125 32.89380371 3.37125 33.80566406 3.75 C50.19877506 10.72373112 61.70944695 21.35403595 69.875 37.25 C70.18606689 37.85303955 70.49713379 38.4560791 70.81762695 39.07739258 C72.44988347 42.39229245 73 44.21339785 73 48 C65.41 48 57.82 48 50 48 C48.35 45.03 46.7 42.06 45 39 C42.08837134 34.84053048 39.35659613 32.48509079 35.125 29.6875 C30.69534054 26.71479343 27.94409189 23.5997117 24.8203125 19.328125 C18.10191758 10.73549974 9.62377433 5.69121288 0 1 C0 0.67 0 0.34 0 0 Z " fill="#0053FE" transform="translate(55,0)"/>
<path d="M0 0 C4.51846921 3.04505534 8.13526194 6.71828583 9.875 11.9375 C10.65014301 18.49444743 9.75212917 22.59334898 5.875 27.9375 C0.68267863 32.74989541 -3.52932122 33.29124727 -10.3984375 33.21875 C-15.50374325 32.6921282 -18.12476047 30.04587353 -21.4375 26.375 C-24.76222878 21.57261398 -24.84518452 16.59011105 -24.125 10.9375 C-22.38236781 6.15747618 -19.74483531 2.93779172 -15.3125 0.4375 C-10.00493361 -1.81146881 -5.51859176 -1.8763212 0 0 Z " fill="#F9FAFE" transform="translate(72.125,49.0625)"/>
<path d="M0 0 C6.93 0 13.86 0 21 0 C21.185625 2.35125 21.37125 4.7025 21.5625 7.125 C22.35030637 14.81068318 24.79863864 20.60245863 28.5390625 27.3046875 C30 30 30 30 30 32 C24.75044832 34.15758273 20.19189716 34.24042211 14.625 34.125 C13.79355469 34.11597656 12.96210938 34.10695312 12.10546875 34.09765625 C10.07018663 34.0742622 8.03505436 34.03839725 6 34 C5.18667257 31.89615302 4.37436583 29.79191143 3.5625 27.6875 C3.11003906 26.51574219 2.65757812 25.34398437 2.19140625 24.13671875 C0.80057728 20.47496249 -0.12529228 17.66621158 -0.09765625 13.76953125 C-0.09515869 13.04612549 -0.09266113 12.32271973 -0.09008789 11.57739258 C-0.08098389 10.66497803 -0.07187988 9.75256348 -0.0625 8.8125 C-0.041875 5.904375 -0.02125 2.99625 0 0 Z " fill="#0047DB" transform="translate(0,63)"/>
<path d="M0 0 C6.82995021 1.88071093 13.42531246 4.53093942 19 9 C19 14.3316408 16.61782736 19.02257237 12.87451172 22.82324219 C6.21009567 27.00694697 -4.44325198 25.37560608 -12 25 C-10.44715716 19.41499698 -8.88666309 14.19169511 -6 9.125 C-5.505 8.24070312 -5.01 7.35640625 -4.5 6.4453125 C-3.11317221 4.18449428 -1.63200208 2.0885741 0 0 Z " fill="#E50400" transform="translate(13,24)"/>
<path d="M0 0 C-0.33 1.65 -0.66 3.3 -1 5 C-4.63 5 -8.26 5 -12 5 C-12.33 6.65 -12.66 8.3 -13 10 C-9.80828817 12.17970564 -6.68796768 14.17166754 -3.25 15.9375 C0 18 0 18 1.5 20.3125 C2.18028291 23.96902063 2.02633326 26.4078336 1 30 C-2.23021757 33.7147502 -4.57462186 35.21430274 -9.4375 35.9375 C-13.70081066 36.21208611 -17.00316594 35.44566338 -21 34 C-20.505 31.03 -20.505 31.03 -20 28 C-19.45859375 28.16371094 -18.9171875 28.32742187 -18.359375 28.49609375 C-15.59777407 29.08590587 -13.07181861 29.09609308 -10.25 29.0625 C-9.26515625 29.05347656 -8.2803125 29.04445313 -7.265625 29.03515625 C-6.51796875 29.02355469 -5.7703125 29.01195313 -5 29 C-4.76997168 25.32426503 -4.76997168 25.32426503 -6 22 C-8.67509874 20.1573469 -11.3842835 18.80825017 -14.3359375 17.45703125 C-17.15405501 15.91574411 -18.40762834 14.76152162 -20 12 C-20.51852266 7.92589337 -20.44210792 5.76518679 -18.375 2.1875 C-13.16987839 -2.60669095 -6.35264796 -3.17632398 0 0 Z " fill="#E80000" transform="translate(169,67)"/>
<path d="M0 0 C3.33325754 -0.05874776 6.66637938 -0.09384467 10 -0.125 C10.93457031 -0.14175781 11.86914062 -0.15851562 12.83203125 -0.17578125 C18.56505626 -0.21587233 23.59062118 0.00101343 29 2 C34.32802209 8.3512846 35.96600538 18.98126621 37 27 C36.505 28.485 36.505 28.485 36 30 C31.98533848 27.74787281 29.48542547 25.52904007 26.75 21.8125 C19.43760412 12.0892487 10.76934924 6.24963576 0 1 C0 0.67 0 0.34 0 0 Z " fill="#0248DB" transform="translate(55,0)"/>
<path d="M0 0 C3.70694475 3.23371776 5.16823733 5.46114141 5.875 10.3125 C5.91625 11.529375 5.9575 12.74625 6 14 C5 15 5 15 1.18359375 15.09765625 C-0.39846682 15.09098089 -1.98051159 15.07901875 -3.5625 15.0625 C-4.36880859 15.05798828 -5.17511719 15.05347656 -6.00585938 15.04882812 C-8.00393756 15.03700518 -10.00197783 15.01906914 -12 15 C-10.76580997 17.52824851 -10.76580997 17.52824851 -9 20 C-4.6100226 20.92047913 -0.4836637 21.14011449 4 21 C3.67 22.65 3.34 24.3 3 26 C-1.92200884 27.57504283 -6.42244399 27.60675231 -11.25 25.75 C-15.07158012 23.31808538 -16.57820787 21.26537638 -18 17 C-18.53462577 10.58449072 -17.87599437 7.20199245 -14 2 C-9.4769377 -1.28949985 -5.2199771 -1.91184347 0 0 Z M-9.75 5.3125 C-11.20303079 7.09146679 -11.20303079 7.09146679 -12 10 C-8.04 10 -4.08 10 0 10 C-1.45288986 5.4158037 -1.45288986 5.4158037 -3 4 C-5.86264617 3.69866882 -7.4047729 3.55357968 -9.75 5.3125 Z " fill="#E80000" transform="translate(193,76)"/>
<path d="M0 0 C7.26 0 14.52 0 22 0 C22 12.375 22 12.375 21 16.6875 C20.814375 17.51636719 20.62875 18.34523438 20.4375 19.19921875 C20.293125 19.79347656 20.14875 20.38773438 20 21 C12.87791101 18.96070337 5.94403861 16.58175794 -1 14 C-0.67 9.38 -0.34 4.76 0 0 Z " fill="#E60403" transform="translate(109,63)"/>
<path d="M0 0 C3.27833329 2.73194441 4.77020088 4.16757584 5.30078125 8.3984375 C5.31120449 10.60121653 5.16640224 12.80349041 5 15 C-0.61 15 -6.22 15 -12 15 C-11.01 16.65 -10.02 18.3 -9 20 C-4.6100226 20.92047913 -0.4836637 21.14011449 4 21 C3.67 22.65 3.34 24.3 3 26 C-1.92200884 27.57504283 -6.42244399 27.60675231 -11.25 25.75 C-15.07158012 23.31808538 -16.57820787 21.26537638 -18 17 C-18.53462577 10.58449072 -17.87599437 7.20199245 -14 2 C-9.46804636 -1.29596628 -5.2286361 -1.90034618 0 0 Z M-11 6 C-11.33 7.32 -11.66 8.64 -12 10 C-8.04 10 -4.08 10 0 10 C-1.45288986 5.4158037 -1.45288986 5.4158037 -3 4 C-6.72224599 3.70613847 -7.77786243 3.85190829 -11 6 Z " fill="#E80000" transform="translate(272,76)"/>
<path d="M0 0 C2.86942113 2.26533247 3.83907612 3.51722837 5 7 C5.0806622 8.48123547 5.10761193 9.96582204 5.09765625 11.44921875 C5.09443359 12.29677734 5.09121094 13.14433594 5.08789062 14.01757812 C5.07951172 14.89865234 5.07113281 15.77972656 5.0625 16.6875 C5.05798828 17.58017578 5.05347656 18.47285156 5.04882812 19.39257812 C5.03704983 21.59511987 5.02060164 23.79752599 5 26 C3.02 26 1.04 26 -1 26 C-1.06058594 24.80761719 -1.12117188 23.61523438 -1.18359375 22.38671875 C-1.26801149 20.82030075 -1.35265887 19.25389512 -1.4375 17.6875 C-1.47681641 16.90181641 -1.51613281 16.11613281 -1.55664062 15.30664062 C-1.59853516 14.54931641 -1.64042969 13.79199219 -1.68359375 13.01171875 C-1.72025146 12.31522217 -1.75690918 11.61872559 -1.79467773 10.90112305 C-1.95581153 8.7783428 -1.95581153 8.7783428 -3 6 C-4.8064655 4.9853761 -4.8064655 4.9853761 -7 5 C-9.26381877 5.82703135 -9.26381877 5.82703135 -11 8 C-11.6542875 11.04949519 -11.69706805 14.07654478 -11.75 17.1875 C-11.77964844 18.03248047 -11.80929688 18.87746094 -11.83984375 19.74804688 C-11.9104699 21.83151822 -11.95750795 23.91576506 -12 26 C-13.98 26 -15.96 26 -18 26 C-18 17.42 -18 8.84 -18 0 C-15.33333333 0 -12.66666667 0 -10 0 C-6.19426871 -1.2685771 -3.89430952 -0.88817586 0 0 Z " fill="#E80000" transform="translate(222,76)"/>
<path d="M0 0 C4.51846921 3.04505534 8.13526194 6.71828583 9.875 11.9375 C10.65014301 18.49444743 9.75212917 22.59334898 5.875 27.9375 C0.68267863 32.74989541 -3.52932122 33.29124727 -10.3984375 33.21875 C-15.50374325 32.6921282 -18.12476047 30.04587353 -21.4375 26.375 C-24.76222878 21.57261398 -24.84518452 16.59011105 -24.125 10.9375 C-22.38236781 6.15747618 -19.74483531 2.93779172 -15.3125 0.4375 C-10.00493361 -1.81146881 -5.51859176 -1.8763212 0 0 Z M-19.125 8.9375 C-20.98246073 12.65242147 -20.5671807 16.88313892 -20.125 20.9375 C-17.78841779 25.88027006 -15.2565171 28.09015384 -10.125 29.9375 C-5.53760124 30.6207296 -2.49701433 29.62020047 1.328125 27.19140625 C4.50935148 24.61268478 5.58875171 21.72896403 6.22265625 17.76171875 C6.4941007 13.62045085 6.24693172 10.80978417 3.625 7.5 C-0.68393612 3.48485498 -3.98100954 2.38036793 -9.80078125 2.4765625 C-13.86212077 3.28200462 -16.46605078 5.88287381 -19.125 8.9375 Z " fill="#0749DC" transform="translate(72.125,49.0625)"/>
<path d="M0 0 C2.97 0.495 2.97 0.495 6 1 C6.66 0.67 7.32 0.34 8 0 C11.3125 -0.375 11.3125 -0.375 15 0 C17.63016161 2.1727422 19.47336894 3.94673788 21 7 C21.35017306 12.3401391 21.46830225 15.66462219 18 20 C15.5213788 22.4786212 14.41335239 22.96693181 10.875 23.25 C8 23 8 23 6 22 C5.67 24.97 5.34 27.94 5 31 C3.35 31 1.7 31 0 31 C0 20.77 0 10.54 0 0 Z M6.875 5.5625 C4.71320832 7.95967132 4.71320832 7.95967132 4.5 11.5 C5.06516999 15.45618991 5.90892553 16.58509807 9 19 C11.75220373 18.13088303 13.5656698 17.5527839 15.375 15.25 C16.24273921 12.12613883 15.9220483 10.09544787 15 7 C12.0290491 4.12488623 10.40458794 2.96721475 6.875 5.5625 Z " fill="#0041DF" transform="translate(241,35)"/>
<path d="M0 0 C0.99 0.33 1.98 0.66 3 1 C2.67 2.65 2.34 4.3 2 6 C-0.01822917 5.70703125 -2.03645833 5.4140625 -4.0546875 5.12109375 C-6.08140667 4.8315703 -6.08140667 4.8315703 -8 6 C-8.12815365 8.3852733 -8.12815365 8.3852733 -7 11 C-5.23335735 12.10920187 -5.23335735 12.10920187 -3.125 13 C-0.32250055 14.26288575 0.96948511 14.96578633 3.0625 17.3125 C4.36530755 21.04721497 4.16650967 23.22599814 3 27 C-0.20162922 30.04545219 -2.77770327 31.2368616 -7.125 31.375 C-10.42854019 31.05530256 -12.29155733 30.80562845 -15 29 C-14.67 27.68 -14.34 26.36 -14 25 C-10.37 25 -6.74 25 -3 25 C-2.67 23.02 -2.34 21.04 -2 19 C-2.886875 18.731875 -3.77375 18.46375 -4.6875 18.1875 C-8.58140202 16.79157286 -11.82739707 15.54570387 -14.375 12.1875 C-15.27208761 9.04769336 -14.97238994 7.11164779 -14 4 C-10.03175041 -0.71229639 -5.74966719 -0.65679719 0 0 Z " fill="#0041DF" transform="translate(163,27)"/>
<path d="M0 0 C3.52787301 1.95657197 5.70285021 4.10855063 7 8 C7.40109454 12.25160217 7.26378256 14.5006973 5.25 18.3125 C2.04340948 22.14259424 0.50448865 22.83587397 -4.4375 23.375 C-8.62750939 22.93394638 -10.093893 21.98913863 -13 19 C-15.33770158 15.19425374 -15.14021827 12.50210829 -14.55078125 8.19140625 C-13.76713199 5.07348261 -12.28384549 3.21463805 -10 1 C-6.76918255 -0.61540873 -3.49240902 -0.5896275 0 0 Z M-7.72265625 5.21875 C-9.74880981 8.04421185 -9.47270415 10.51908436 -9.3515625 13.89453125 C-9.14146972 16.17247911 -9.14146972 16.17247911 -7.3125 18.1875 C-4.98449834 19.21418485 -4.98449834 19.21418485 -2.375 18.5625 C0.22414863 17.13256784 0.22414863 17.13256784 1.4375 14.1875 C2.07097403 10.59781381 1.74863968 9.14755142 0 6 C-0.66 5.34 -1.32 4.68 -2 4 C-5.80746359 3.61496333 -5.80746359 3.61496333 -7.72265625 5.21875 Z " fill="#0041DF" transform="translate(205,35)"/>
<path d="M0 0 C0.33 1.32 0.66 2.64 1 4 C-2.07322544 4.91058531 -4.80097361 5.08886184 -8 5 C-7.96044102 6.92309422 -7.96044102 6.92309422 -7 9 C-5.03533587 10.06775224 -3.03144641 11.06553465 -1 12 C0.875 13.25 0.875 13.25 2 15 C2.48364579 18.80007406 2.56743105 21.06250523 0.5625 24.375 C-3.14116562 26.723666 -6.65287329 27.10055631 -11 27 C-14.0625 26.0625 -14.0625 26.0625 -16 25 C-15.67 23.35 -15.34 21.7 -15 20 C-11.37 20.33 -7.74 20.66 -4 21 C-4.55405749 17.06060028 -4.55405749 17.06060028 -6.77734375 15.5859375 C-7.49019531 15.18632813 -8.20304688 14.78671875 -8.9375 14.375 C-11.32419292 13.01488825 -13.04330487 11.95669513 -15 10 C-14.66785714 3.91071429 -14.66785714 3.91071429 -12.625 1.125 C-8.37672326 -1.81611466 -4.80339435 -0.70869753 0 0 Z " fill="#E80000" transform="translate(248,76)"/>
<path d="M0 0 C2.96205021 1.5454175 4.44986311 2.76285005 5.81640625 5.8359375 C7.21375956 10.42347478 7.19828083 13.60343834 5 18 C2.00434556 21.46372545 0.30817333 22.90126994 -4.3125 23.25 C-8.24058469 22.98368917 -9.95647943 22.43481646 -13 20 C-15.53378597 15.80676265 -15.83565364 11.78225549 -15 7 C-11.47731512 0.68797728 -6.99647524 -0.92659653 0 0 Z M-9 6 C-9.80542799 9.84127197 -10.34713133 12.64618783 -9.375 16.4375 C-8.03597494 18.18781013 -8.03597494 18.18781013 -5.625 19 C-2.90764812 19.23808361 -2.90764812 19.23808361 -0.6875 17.5 C1.61370679 14.09080475 1.57649108 12.03543757 1 8 C-0.66788932 5.49722089 -0.66788932 5.49722089 -3 4 C-6.18490007 3.7226499 -6.18490007 3.7226499 -9 6 Z " fill="#0041DF" transform="translate(230,35)"/>
<path d="M0 0 C7.00897689 1.72931766 13.50288191 3.83967342 20 7 C19.45394953 11.58682392 18.12954782 14.92360014 16 19 C6 15 6 15 -4 11 C-3.5247412 9.35303396 -3.04468109 7.70745272 -2.5625 6.0625 C-2.29566406 5.14597656 -2.02882813 4.22945313 -1.75390625 3.28515625 C-1 1 -1 1 0 0 Z " fill="#0147DB" transform="translate(108,77)"/>
<path d="M0 0 C1.051875 -0.00386719 1.051875 -0.00386719 2.125 -0.0078125 C4 0.125 4 0.125 6 1.125 C5.67 2.445 5.34 3.765 5 5.125 C4.04287109 5.21587891 4.04287109 5.21587891 3.06640625 5.30859375 C2.24011719 5.39238281 1.41382813 5.47617187 0.5625 5.5625 C-0.67306641 5.68431641 -0.67306641 5.68431641 -1.93359375 5.80859375 C-3.98662025 5.91430815 -3.98662025 5.91430815 -5 7.125 C-5.0979057 8.62238124 -5.12974864 10.12442892 -5.125 11.625 C-5.12757813 12.4396875 -5.13015625 13.254375 -5.1328125 14.09375 C-5.2245178 16.12030377 -5.2245178 16.12030377 -4 17.125 C-2.48530552 17.35692865 -0.96245438 17.53715238 0.5625 17.6875 C1.38878906 17.77128906 2.21507812 17.85507812 3.06640625 17.94140625 C4.02353516 18.03228516 4.02353516 18.03228516 5 18.125 C5.33 19.445 5.66 20.765 6 22.125 C1.49440359 23.62686547 -2.34213337 23.84089695 -6.75 21.9375 C-9.46372362 19.75144486 -10.72125385 18.39290683 -12 15.125 C-12.30725162 10.1547532 -11.73458204 7.02910098 -8.5625 3.125 C-5.40837582 0.66324455 -3.91033058 -0.01437622 0 0 Z " fill="#0041DF" transform="translate(182,34.875)"/>
<path d="M0 0 C2.62386487 3.06117568 3 3.73173127 3 8 C-2.28 8 -7.56 8 -13 8 C-10.06489842 5.79867381 -7.4339774 4.04495829 -4.25 2.3125 C-3.45078125 1.87550781 -2.6515625 1.43851563 -1.828125 0.98828125 C-1.22484375 0.66214844 -0.6215625 0.33601563 0 0 Z " fill="#E40609" transform="translate(125,40)"/>
</svg>
